<?xml version="1.0" encoding="UTF-8"?>
<svg width="96.932mm" height="105.24mm" version="1.1" viewBox="0 0 343.46 372.9" xmlns="http://www.w3.org/2000/svg" xmlns:cc="http://creativecommons.org/ns#" xmlns:dc="http://purl.org/dc/elements/1.1/" xmlns:rdf="http://www.w3.org/1999/02/22-rdf-syntax-ns#">
<title>polka dot letter</title>
<metadata>
<rdf:RDF>
<cc:Work rdf:about="">
<dc:format>image/svg+xml</dc:format>
<dc:type rdf:resource="http://purl.org/dc/dcmitype/StillImage"/>
<dc:title>polka dot letter</dc:title>
<dc:date>07/23/2015</dc:date>
<dc:creator>
<cc:Agent>
<dc:title>edited by Paul Sherman</dc:title>
</cc:Agent>
</dc:creator>
<dc:rights>
<cc:Agent>
<dc:title>pd</dc:title>
</cc:Agent>
</dc:rights>
<dc:publisher>
<cc:Agent>
<dc:title>wpclipart</dc:title>
</cc:Agent>
</dc:publisher>
<cc:license rdf:resource="http://creativecommons.org/publicdomain/zero/1.0/"/>
</cc:Work>
<cc:License rdf:about="http://creativecommons.org/publicdomain/zero/1.0/">
<cc:permits rdf:resource="http://creativecommons.org/ns#Reproduction"/>
<cc:permits rdf:resource="http://creativecommons.org/ns#Distribution"/>
<cc:permits rdf:resource="http://creativecommons.org/ns#DerivativeWorks"/>
</cc:License>
</rdf:RDF>
</metadata>
<g transform="translate(157.05 225.52)">
<g transform="translate(-879.67 -236.18)" stroke-width=".0938">
<path d="m867.88 28.84c25.38-5.29 51.65-4.83 77.23-1.25 16.98 2.64 33.84 6.72 49.65 13.56 3.67 1.53 7.07 3.69 10.88 4.92 1.66-4.53 2.5-9.4 4.72-13.71 2.76-3.53 7.71-2.87 11.68-2.92 3.71-0.09 8.34 0.47 10.2 4.19 1.79 4.37 0.92 9.22 1.48 13.81 2.89 31.58 6.1801 63.12 10.24 94.56 0.6001 4.1-2.3099 8.19-6.47 8.7-5 0.78-10.63 4.67-15.36 1.24-3.33-2.98-4.03-7.62-5.4-11.65-5.61-16.57-14.74-31.82-25.82-45.3-7.44-9.15-16.3-17.11-25.91-23.92-14.38-10.13-31.44-16.57-49.04-17.77-17.32-1.53-35.4 1.32-50.55 10.14-13.92 8.04-24.7 20.72-32.1 34.86-10.15 19.64-14.79 41.73-16.05 63.68-1.41 20.09 0.46 40.33 4.73 59.98 4.21 19.17 10.93 37.97 21.43 54.63 9.36 14.94 22.51 27.32 37.36 36.7 12.59 8.01 27.31 12.75 42.27 12.96 32.45 0.29 65.83-9.21 90.82-30.47 5.89-5.09 11.18-10.9 15.49-17.39 1.6801-2.67 4.24-5.33 7.64-5.25 3.2-0.28 5.34 2.36 7.54 4.23 2.0699 1.98 4.6 3.52 6.3199 5.86 1.85 2.95 0.91 6.8-1.0699 9.43-15.14 21.88-34.47 41.12-57.42 54.73-24.7 14.87-53.63 22.27-82.41 21.94-20.89-0.19-41.96-2.14-62.02-8.24-19.29-5.67-37.19-15.62-52.69-28.38-13.7-10.73-25.06-24.23-33.72-39.3-19.89-34.97-28.28-76.44-23.28-116.39 3.94-35.48 18.51-69.84 42.17-96.68 22.26-26.37 53.6-44.8 87.46-51.5m-27.54 16.76c-4.02 1.86-8 3.8-11.9 5.89-20.95 11.18-38.56 27.93-52.3 47.19-2.01 2.84-3.92 5.74-5.85 8.63-15.51 25.2-23.96 54.47-25.23 83.98-0.27 2.68-0.23 5.38-0.25 8.07-0.19 15.7 2.01 31.41 6.01 46.58 0.66 2.83 1.6 5.59 2.29 8.42 8.33 25.38 21.33 50.07 41.9 67.65 13.95 12.18 29.75 22.5 47.24 28.78 21.93 8.07 45.52 10.35 68.74 10.59 1.41-0.1 2.98 0.2 4.34-0.32 3.35 0.27 6.71-0.03 10.08-0.2 20.22-1.96 40.13-7.68 57.95-17.52 24.37-13.32 44.8-33.19 60.4-56.05-2.24-1.93-4.47-3.87-6.72-5.79-18.79 28.18-51.22 44.64-83.97 50.21-3.17 0.49-6.33 1.07-9.5 1.48-9.84 0.82-19.76 1.64-29.6 0.42-5.77-0.58-11.35-2.21-16.95-3.6-1.3-0.57-2.63-1.02-3.93-1.5-7.57-3.32-15.1-6.91-21.77-11.86-1.16-0.75-2.21-1.79-3.52-2.2-3.43-3.03-6.99-5.89-10.47-8.85l0.02-0.19c-6.6-5.98-12.54-12.65-17.7-19.91-2.83-4.3-5.51-8.69-8.04-13.16-11.9-22.55-18.47-47.58-21.42-72.81-0.08-0.57-0.23-1.71-0.31-2.28-0.13-7.1-1.21-14.15-1.09-21.26 0.13-11.57 0.84-23.15 2.58-34.6 0.64-3.5 1.3-7 1.96-10.5 4.68-20.76 12.97-41.25 27.27-57.31 11.66-13.26 27.6-22.64 44.87-26.35l0.2-0.33c4.63-0.48 9.2-1.4 13.86-1.76 14.86-0.8 29.97 0.8 44.03 5.87 3.67 1.29 7.25 2.81 10.76 4.5 8.35 3.9 15.82 9.37 23.21 14.78 3.02 2.76 6.09 5.46 9.22 8.1 6.35 6.6 12.25 13.69 17.8 20.98 2.58 4.21 5.5 8.2 7.9 12.53 5.43 9.36 10 19.27 12.98 29.69 0.48 1.12 0.5099 2.63 1.6 3.39 3.0399-0.29 5.9199-1.4 8.86-2.2-0.26-4.88-1.1801-9.69-1.75-14.53-1.38-12.06-2.76-24.12-4.02-36.2-1.78-18.12-4.12-36.21-4.79-54.42-2.89-0.19-5.78-0.22-8.65-0.12-0.81 2.56-1.64 5.12-2.36 7.71-1.1 2.51-1.48 5.55-3.67 7.41-2.19 1.96-5.33 1.17-7.98 1.35-14.49-8.14-30.56-13.03-46.77-16.35-38.22-7.56-79.15-7.11-115.56 7.97z" fill="#4798ee" stroke="#4798ee"/>
<path d="m840.34 45.6c36.41-15.08 77.34-15.53 115.56-7.97 16.21 3.32 32.28 8.21 46.77 16.35 3.4 3.13 9.62 2.88 11.78-1.54 1.52-2.26 0.98-4.94-0.13-7.22 0.72-2.59 1.55-5.15 2.36-7.71 2.87-0.1 5.76-0.07 8.65 0.12 0.67 18.21 3.01 36.3 4.79 54.42 1.26 12.08 2.64 24.14 4.02 36.2-2.39 1.51-4.89 3.61-4.58 6.77-0.15 3.87 3.0699 6.45 6.33 7.76-2.9401 0.8-5.8201 1.91-8.86 2.2-1.0901-0.76-1.12-2.27-1.6-3.39-2.98-10.42-7.55-20.33-12.98-29.69 3.36-2.66 3.68-7.97 0.55-10.93-2.23-2.29-5.63-1.38-8.45-1.6-5.55-7.29-11.45-14.38-17.8-20.98-0.64-2.22-0.72-4.89-2.7-6.4-1.72-1.75-4.32-1.34-6.52-1.7-7.39-5.41-14.86-10.88-23.21-14.78 1.6-1.86 3.4-3.87 3.3-6.51 0.33-3.73-2.88-6.95-6.39-7.52-2.78-0.15-5.7 1.24-7.13 3.66-1.03 1.79-0.5699 3.92-0.54 5.87-14.06-5.07-29.17-6.67-44.03-5.87-2.08-1.91-4.48-4.29-7.59-3.46-3.17 0.05-4.98 2.71-6.27 5.22l-0.2 0.33c-17.27 3.71-33.21 13.09-44.87 26.35-14.3 16.06-22.59 36.55-27.27 57.31-2.68-1.79-5.84-3.95-9.2-2.61-5.6 1.5-6.42 10.27-1.4 12.96 2.61 1.8 5.8 0.59 8.64 0.15-1.74 11.45-2.45 23.03-2.58 34.6-0.12 7.11 0.96 14.16 1.09 21.26-0.52-3.82-0.84-7.67-1.09-11.51-3.23-0.52-6.95 0.33-8.65 3.37-1.38 3.16-0.94 7.6 2.24 9.54 2.24 1.7 5.2 0.92 7.81 0.88 2.95 25.23 9.52 50.26 21.42 72.81-1.38 1.72-3.41 3.3-3.42 5.7-0.37 2.82 0.93 5.84 3.45 7.26 2.46 1.45 5.37 0.48 8.01 0.2 5.16 7.26 11.1 13.93 17.7 19.91l-0.02 0.19c-0.24 2.55-0.52 5.56 1.63 7.43 2.32 2.43 5.85 1.77 8.84 1.42 1.31 0.41 2.36 1.45 3.52 2.2 6.67 4.95 14.2 8.54 21.77 11.86-3.2401 1.46-7.36 3.29-7.42 7.47-0.71 5.71 6.24 10 10.99 6.71 4.8-2.58 4.01-9.43 0.36-12.68 5.6 1.39 11.18 3.02 16.95 3.6 9.84 1.22 19.76 0.4 29.6-0.42-0.15 2.9-0.69 6.36 1.75 8.54 3.16 3.45 9.61 2.49 11.5-1.85 1.8-3.09 1.04-9.21-3.75-8.17 32.75-5.57 65.18-22.03 83.97-50.21 2.25 1.92 4.48 3.86 6.72 5.79-15.6 22.86-36.03 42.73-60.4 56.05-17.82 9.84-37.73 15.56-57.95 17.52 0.1-0.52 0.3-1.55 0.4-2.06-3.76-1.21-7.62-0.51-10.48 2.26-1.36 0.52-2.93 0.22-4.34 0.32-23.22-0.24-46.81-2.52-68.74-10.59-17.49-6.28-33.29-16.6-47.24-28.78-20.57-17.58-33.57-42.27-41.9-67.65 0.49 0.1 1.46 0.29 1.95 0.38 0.68-2.41 1.74-5.03 0.57-7.48-0.75-2.19-2.98-3.23-4.72-4.49-0.02 0.8-0.0699 2.38-0.09 3.17-4-15.17-6.2-30.88-6.01-46.58 2.83 0.12 6.17 1.17 8.55-0.95 3.01-2.15 3.75-6.57 1.83-9.68-1.79-2.95-5.95-4.09-9.05-2.67-0.56 1.7-0.86 3.46-1.08 5.23 1.27-29.51 9.72-58.78 25.23-83.98 1.11 4.17 5.56 7.45 9.87 5.89 4.7401-1.4 6.2-7.83 3.19-11.5-1.65-2.33-4.71-2.4-7.21-3.02 13.74-19.26 31.35-36.01 52.3-47.19 1.54 1.73 2.9 4.2 5.5 4.39 3.46 0.63 7.33-1.4 8.3-4.89 0.36-1.93 0.86-5.2-1.9-5.39m-38 25.86c-5 3.05-3.4 12.41 2.67 13.09 4.46 1.05 9.5-2.74 8.6-7.53 0.22-5.7-6.88-8.34-11.27-5.56m-27.97 86.04c-4.75 2.24-5.19 9.97-0.43 12.45 4.31 3.09 11.51-0.41 10.98-5.92 0.66-5.42-6.04-9.11-10.55-6.53m0.27 57.17c-2.97 1.55-4.58 5.14-3.97 8.4 1 3.55 4.61 6.21 8.36 5.46 5.36-0.58 7.89-7.94 4.27-11.83-1.99-2.73-5.7-2.82-8.66-2.03m29.58 28.68c-5.66 1.54-6.6 10.13-1.59 13 4.05 2.6 10.09 0.28 10.94-4.57 1.56-5.33-4.3-10.22-9.35-8.43m-29.8 29.18c-4.87 2.39-5.33 9.93-0.44 12.55 4.38 3.23 11.4-0.61 10.94-6.07 0.6-5.32-6.07-9-10.5-6.48m28.94 28.79c-4.85 2.04-5.5 9.63-0.97 12.34 4.24 3.24 11.65-0.1 11.36-5.65 0.37-5.09-5.89-9.52-10.39-6.69m28.78 28.77c-6.04 2.8-4.78 12.71 1.89 13.59 5.99 1.59 10.89-6.2 7.28-11.02-1.54-3.38-6.11-4-9.17-2.57z" fill="#abebeb" stroke="#abebeb"/>
<path d="m828.44 51.49c3.9-2.09 7.88-4.03 11.9-5.89 2.7599 0.19 2.2599 3.46 1.9 5.39-0.97 3.49-4.84 5.52-8.3 4.89-2.6-0.19-3.96-2.66-5.5-4.39z" fill="#fffefd" stroke="#fffefd"/>
<path d="m885.67 46.9c1.29-2.51 3.1-5.17 6.27-5.22 3.11-0.83 5.51 1.55 7.59 3.46-4.66 0.36-9.23 1.28-13.86 1.76z" fill="#fffdff" stroke="#fffdff"/>
</g>
</g>
</svg>
